PathFileType	4	(X/Y/Z)	C:\Users\WrightLab\Desktop\Jo\P4V110.trc
DataRate	CameraRate	NumFrames	NumMarkers	Units	OrigDataRate	OrigDataStartFrame	OrigNumFrames
100.00	100.00	       23	19	mm	100.00	396	       633
Frame#	Time	Headset_Front			Headset_Back			Headset_Left			Headset_Right			Left_Shoulder			Right_Shoulder			Sternum			C7			Left Elbow			Right Elbow			Left Wrist			Right Wrist			Left ASIS			Right ASIS			S2			Left Knee			Right Knee			Left Ankle			Right Ankle			
		X1	Y1	Z1	X2	Y2	Z2	X3	Y3	Z3	X4	Y4	Z4	X5	Y5	Z5	X6	Y6	Z6	X7	Y7	Z7	X8	Y8	Z8	X9	Y9	Z9	X10	Y10	Z10	X11	Y11	Z11	X12	Y12	Z12	X13	Y13	Z13	X14	Y14	Z14	X15	Y15	Z15	X16	Y16	Z16	X17	Y17	Z17	X18	Y18	Z18	X19	Y19	Z19	

396	3.950	98.90034	1577.91943	840.07526							41.57859	1689.01794	1012.74792	292.74582	1517.35791	859.58978	-8.42539	1541.33472	906.62122	166.72775	1462.99683	989.51355				478.47778	1192.16602	875.56549	-185.74193	1214.05566	897.77435	521.09711	950.68030	1072.83789	-174.94031	937.03070	1030.50586	289.75845	1039.64868	897.59778	-11.00234	1031.90820	1038.97424	78.24917	1057.59094	793.17914	277.14465	566.88568	785.49933	43.41863	588.95813	1162.99707	181.16092	83.00624	621.86102	166.53098	92.37874	1250.32642	
397	3.960	97.98634	1576.55127	850.40948							41.67769	1687.08838	1021.67096	293.94678	1515.58423	869.58856	-7.65681	1538.63354	915.56940	167.25446	1461.31335	999.85376				480.90100	1191.13696	890.05115	-184.49294	1211.29919	903.90894	523.48560	952.08197	1089.69287	-175.74763	933.73376	1036.85132	292.25919	1038.68152	909.47198	-9.34949	1029.14734	1049.16248	80.98060	1055.75183	803.00000	279.45969	565.75842	793.01746	47.12964	583.68878	1168.41736	181.24991	84.64145	622.22510	168.37878	92.57376	1274.12854	
398	3.970	97.02435	1575.10583	860.68219							41.65114	1685.37219	1030.63708	295.18494	1513.83765	882.77014	-6.94494	1535.67615	924.64148	167.73985	1458.98291	1010.33264				482.88736	1190.17114	903.61597	-182.97093	1208.24658	910.33063	525.99475	953.15881	1106.12781	-175.58087	930.26489	1042.46472	294.07281	1036.31714	921.70935	-7.65892	1026.49304	1059.32202	84.90970	1053.52173	814.48285	281.67285	565.31647	800.44427	49.14840	578.96960	1174.96484	181.53827	86.75129	622.78876	170.54184	94.58401	1297.07434	
399	3.980	95.79329	1573.81384	871.12457							40.80603	1683.39075	1039.89001	296.06314	1512.67725	894.25659	-6.23216	1533.19910	933.64966	167.94588	1457.47644	1021.41357				485.39651	1189.55176	918.00806	-181.31845	1205.06836	917.55554	528.46033	953.97412	1122.24792	-176.87253	927.25000	1048.83740	296.76288	1035.42322	933.49426	-6.45997	1023.65924	1069.80652	87.13013	1052.67700	825.61230	284.03915	564.76538	808.01465	51.95446	574.05829	1181.57471	182.09367	88.33055	623.70020	172.04185	94.68008	1317.82178	
400	3.990	94.26965	1572.43188	881.95929							40.13547	1681.60229	1049.17297	297.77905	1510.94397	906.17896	-5.96422	1530.78162	942.78540	168.01880	1455.76709	1032.54639				486.68353	1188.13989	931.53937	-180.16197	1202.08948	924.56537	530.39484	955.23523	1137.83594	-176.35916	923.41449	1056.21497	299.23123	1033.30652	945.38574	-4.70772	1021.14978	1080.19629	89.58127	1050.72473	837.32220	286.37668	564.97296	816.23315	54.54638	570.27960	1190.04468	182.61543	90.58555	624.49792	172.99597	95.58360	1338.19336	
401	4.000	93.24925	1571.19116	892.57397							39.66203	1679.89954	1058.50989	298.61746	1509.66418	918.16534	-5.43820	1528.15747	952.12384	168.66057	1453.98633	1043.50793				488.30051	1187.51819	945.12677	-178.17926	1199.05054	932.12616	531.47479	955.95557	1153.79639	-177.54436	920.63379	1063.61755	301.00760	1032.07214	958.64630	-3.82974	1018.69879	1090.74536	91.46575	1049.49707	847.95721	288.49933	564.74872	824.06726	55.22417	567.49615	1199.22815	183.37680	93.46199	624.95178	173.68271	95.09431	1353.14160	
402	4.010	90.65243	1570.55066	903.65759							38.59353	1678.25415	1068.07068	299.10941	1508.71411	930.95343	-4.73457	1525.74060	961.52094	167.79881	1452.98364	1054.92090				489.05942	1185.99658	957.96326	-176.99547	1196.27747	940.17627	532.31311	956.32471	1169.14209	-175.79962	916.73315	1067.04810	302.43765	1030.72644	970.79523	-2.97966	1016.93701	1100.42041	93.51467	1046.99902	860.47833	291.18942	564.65881	833.02417	56.22288	565.85474	1210.28577	184.26082	95.95638	626.26703	174.71927	93.89761	1367.43286	
403	4.020	89.46980	1569.52527	915.00836							37.46364	1677.07166	1077.63086	299.88293	1506.52356	943.10364	-4.77292	1523.77466	970.95624	167.65437	1451.54077	1066.35925				490.15500	1184.77039	971.54822	-175.02829	1193.24707	948.31958	533.19873	957.28882	1184.00696	-177.13052	913.86047	1075.58423	303.92859	1029.58276	983.81964	-2.74376	1015.00354	1111.00024	96.86359	1046.25220	872.04626	293.64798	564.87000	842.88251	56.73220	565.30603	1221.60559	185.15602	99.41998	627.27722	175.35994	92.70769	1375.98950	
404	4.030	87.87335	1568.84656	926.36047							36.52231	1675.75793	1087.40173	300.02328	1506.08643	956.29913	-4.94953	1521.65149	980.58722	166.55281	1450.66040	1078.22864				490.56390	1183.51111	984.29822	-173.25745	1190.56433	956.99390	533.16693	956.89307	1197.40906	-178.28775	910.76080	1083.63098	305.14484	1028.46216	997.58667	-2.33365	1013.54303	1121.45679	98.35700	1045.30334	883.05328	296.56445	564.66241	852.83075	56.50280	566.00769	1234.65137	186.55193	102.95132	628.51532	176.21048	90.38371	1381.59253	
405	4.040	85.91347	1568.25037	938.06720							35.46604	1674.80481	1097.36279	300.10199	1504.95544	968.82257	-4.77943	1520.07434	990.30463	165.67242	1449.77380	1090.00098				491.03546	1182.28235	997.17371	-171.55209	1188.17041	965.71503	532.82666	957.88794	1213.12292	-179.09879	908.00989	1093.08252	306.09741	1026.89978	1011.50983	-2.86783	1012.66663	1132.49951	100.62654	1043.98438	895.63293	299.17728	564.64020	862.81940	56.19359	566.41632	1247.20190	187.55910	107.11459	630.00055	176.91243	88.37769	1387.13330	
406	4.050	83.25178	1568.36047	949.97467							33.49429	1674.31934	1107.55029	300.64139	1503.96423	981.74078	-5.06061	1519.07336	1000.28217	164.29076	1448.97620	1102.24512				490.68661	1181.15259	1009.77203	-169.87569	1186.15845	974.56024	532.45087	957.79443	1227.34912	-180.30542	905.30402	1101.37366	307.12891	1025.85498	1025.56091	-2.64813	1011.21173	1143.99805	102.19074	1043.62939	907.48596	302.02051	565.40912	873.50281	54.37097	567.13947	1261.57910	189.06207	111.71952	631.87415	177.89569	84.97629	1390.65991	
407	4.060	80.50965	1568.57898	961.72748							32.23537	1673.93823	1117.81226	300.26981	1503.77502	995.25916	-5.92778	1517.76514	1010.58026	163.12737	1448.65442	1114.46997				490.01163	1180.02246	1022.02472	-168.36240	1184.05237	983.74005	531.56549	957.76044	1240.76917	-180.05302	902.47583	1108.61951	307.49905	1025.71375	1039.98877	-3.19527	1011.02704	1155.84656	104.43783	1042.35596	920.43005	305.26904	565.98181	884.97076	53.86198	568.24805	1275.02905	190.78751	116.60691	634.17700	178.55037	82.01901	1392.33264	
408	4.070	77.61442	1569.19934	973.29706							30.42949	1673.91284	1128.23792	300.24777	1503.31665	1009.83313	-6.48371	1517.05432	1020.74255	161.56335	1448.30420	1126.66882				489.47736	1178.99915	1034.83252	-166.86932	1181.75452	993.04114	530.34772	957.70752	1254.18420	-180.60649	900.14868	1116.86975	308.70065	1024.39648	1055.41235	-3.62815	1010.64941	1168.29919	106.55966	1041.93262	933.41302	308.57999	566.86084	897.24750	51.65137	568.05896	1288.31628	192.62384	122.41768	636.70020	180.01588	81.62525	1393.80603	
409	4.080	75.22438	1569.18506	985.10272							29.17437	1673.80933	1138.80286	299.33670	1503.19214	1023.25018	-7.04296	1515.92969	1031.28699	159.83240	1448.05676	1138.89160				488.13986	1178.26196	1047.07092	-165.52190	1179.96619	1002.20313	528.81464	957.49133	1267.02454	-181.07495	898.49933	1125.62817	309.01007	1023.95673	1071.03235	-3.85676	1009.90149	1181.13037	108.05397	1041.66223	947.22565	312.20432	568.47858	910.94116	49.08673	567.83221	1300.49316	194.72256	128.83366	641.00397	182.89905	82.56449	1396.50281	
410	4.090	72.68988	1569.12891	996.77441							27.14002	1674.40271	1149.49487	298.65698	1503.25134	1037.07043	-8.06964	1515.61316	1041.68848	157.85957	1448.45520	1151.78369				487.10114	1177.87183	1059.93457	-164.55188	1178.83765	1012.64862	526.65979	956.99811	1279.60986	-180.77475	896.23175	1134.36584	309.34427	1023.72510	1086.30737	-5.11334	1010.57452	1193.77820	109.19202	1041.71912	960.61700	316.17523	569.68201	924.91730	46.16209	566.72687	1313.04724	196.71204	135.47862	645.73828	184.57335	85.40980	1401.58740	
411	4.100	69.29615	1570.15137	1008.26038							25.07119	1675.12964	1160.18799	297.12265	1503.85645	1050.74475	-9.30618	1514.94568	1052.44604	155.90700	1449.28088	1164.16736				485.61447	1177.81531	1072.78674	-163.01021	1177.46399	1022.35522	524.71252	956.34393	1292.14282	-180.94293	894.26184	1143.31641	309.54233	1023.74414	1102.28540	-6.06229	1010.71283	1206.17102	109.54113	1041.69824	975.49542	320.36148	570.89331	940.38000	43.84186	565.19904	1323.35913	199.34332	143.16486	651.31592	185.00195	87.27218	1404.31421	
412	4.110	66.26008	1571.08875	1020.13922							22.88576	1676.31604	1171.11584	296.29630	1504.29248	1062.79004	-10.47832	1515.15222	1063.40967	154.29510	1450.63977	1176.81592				483.62848	1177.54456	1085.22375	-162.45372	1176.62317	1032.23401	521.84662	955.62976	1303.97046	-181.50201	893.34821	1152.66199	309.47729	1024.14392	1118.52820	-7.21637	1011.24542	1218.02881	110.76666	1042.39990	988.46143	324.88455	571.26660	957.88538	42.51110	562.62115	1332.22107	201.64600	152.48930	657.97882	185.78320	88.46604	1407.19373	
413	4.120	63.38206	1572.46411	1032.24878							20.88842	1678.33826	1182.09497	295.83701	1505.89026	1077.84424	-11.31635	1515.59521	1073.86426	152.36307	1452.21338	1189.36340				481.44128	1177.84814	1097.79053	-162.00464	1175.93066	1042.39392	518.82965	954.96838	1315.55737	-181.25818	892.36133	1162.00818	308.93524	1024.78418	1134.45813	-8.59852	1012.39270	1229.59033	111.40604	1043.26624	1002.07129	329.27441	570.60529	977.38831	42.22366	562.29303	1342.10339	204.16521	162.16553	665.90674	185.10376	90.03179	1409.48181	
414	4.130	60.17688	1574.47363	1044.34460							19.67505	1679.92334	1192.97876	293.97379	1507.02112	1089.50293	-12.48343	1516.18628	1084.76660	149.92264	1454.08911	1202.00061				478.97333	1178.55725	1110.42712	-161.52817	1176.43616	1053.98474	515.89685	953.97852	1326.78235	-181.16908	891.66882	1171.60266	308.55756	1024.88989	1149.99902	-10.93773	1013.77081	1240.46790	112.08808	1044.44287	1013.81830	333.78091	569.69727	997.74426	42.23589	562.90973	1351.89209	207.50006	173.02760	674.77216	185.55496	89.72613	1411.76379	
415	4.140	57.85161	1576.11194	1056.47705							17.28462	1681.71497	1204.07422	292.80304	1508.95581	1104.31677	-13.72411	1517.12012	1095.73022	148.26797	1455.95776	1214.30847				476.22086	1179.35034	1123.37964	-161.73674	1176.77954	1065.59753	511.61667	953.03571	1336.56750	-181.66362	891.96875	1181.70361	307.51898	1025.49512	1165.50635	-13.47903	1015.17169	1250.79492	113.18842	1045.90820	1025.95837	338.19034	568.21198	1020.18811	42.27905	565.57477	1361.86377	210.74811	184.45164	684.88080	184.93268	90.08334	1412.66760	
416	4.150	54.48360	1578.63965	1068.63074							15.41685	1683.42407	1215.08569	292.10495	1511.04285	1117.78711	-14.92648	1518.71948	1106.29272	145.99532	1457.96326	1227.07227				473.08493	1180.41064	1135.32593	-161.47945	1177.57361	1077.08508	508.11377	952.11377	1348.15881	-181.71324	892.34088	1192.04175	306.54340	1025.51428	1179.98193	-16.19311	1017.06812	1260.47864	114.92748	1047.11511	1038.67896	342.39905	565.66052	1043.40930	40.48437	568.75470	1371.80835	214.65746	197.18044	696.97052	184.59180	90.25591	1414.12061	
417	4.160	141.55870	1547.71594	1072.29895							12.95947	1685.25647	1226.36389	291.05588	1512.97559	1130.60278	-16.18109	1520.23413	1117.22839	143.67650	1459.99475	1239.24414				469.94897	1181.29346	1147.71497	-161.31938	1178.69971	1088.75562	503.88840	951.29211	1358.19006	-181.99570	893.35181	1202.49768	305.06799	1025.48901	1196.23816	-19.50370	1019.25488	1269.75659	116.66682	1048.09546	1049.56799	345.88620	562.67200	1068.63965	36.71832	571.28918	1382.34534	218.03946	211.27246	711.27338	183.55795	90.76611	1415.15125	
418	4.170	135.97945	1549.90930	1085.81445							11.44422	1687.66357	1237.50159	289.16995	1515.24841	1145.59106	-17.11955	1521.86511	1128.07996	141.25206	1461.65833	1251.46094				466.82138	1182.35754	1159.08203	-161.23087	1179.85986	1099.44373	499.32373	950.07324	1368.29980	-182.14529	894.43872	1213.43884	302.77133	1025.79590	1212.39209	-23.02421	1020.68768	1278.82336	118.21458	1049.16699	1061.56555	350.09415	560.10889	1095.15320	31.74203	573.43890	1391.85669	222.36214	224.73668	727.00159	182.59428	91.17638	1415.86609	
